<?xml version="1.0" standalone="no"?>
<!DOCTYPE svg PUBLIC "-//W3C//DTD SVG 20010904//EN"
 "http://www.w3.org/TR/2001/REC-SVG-20010904/DTD/svg10.dtd">
<svg version="1.0" xmlns="http://www.w3.org/2000/svg"
 width="28.000000pt" height="25.000000pt" viewBox="0 0 28.000000 25.000000"
 preserveAspectRatio="xMidYMid meet">

<g transform="translate(0.000000,25.000000) scale(0.100000,-0.100000)"
fill="#CC6237" stroke="none">
<path d="M56 203 c-55 -47 -59 -77 -15 -124 26 -28 28 -34 15 -41 -9 -5 -16
-16 -16 -23 0 -12 20 -15 105 -15 58 0 105 4 105 9 0 5 -7 17 -16 26 -14 13
-14 18 -2 33 7 9 19 21 26 25 27 17 13 67 -29 108 -35 33 -47 39 -84 39 -36 0
-52 -7 -89 -37z m122 5 c-3 -7 5 -17 16 -23 15 -8 22 -22 24 -51 4 -54 -12
-66 -85 -62 l-58 3 -3 47 c-3 39 1 49 17 60 12 7 21 18 21 25 0 8 14 13 36 13
24 0 34 -4 32 -12z"/>
</g>
</svg>
